<svg xmlns="http://www.w3.org/2000/svg" width="1200" height="675" viewBox="0 0 1200 675" role="img" aria-labelledby="title desc">
  <title id="title">AI data artifact map</title>
  <desc id="desc">A map of AI workflow artifacts created during model use.</desc>
  <rect width="1200" height="675" fill="#f8fafc"/>
  <rect x="50" y="46" width="1100" height="583" rx="22" fill="#fff" stroke="#dbe3ee" stroke-width="2"/>
  <text x="86" y="112" font-family="Inter, Arial, sans-serif" font-size="34" font-weight="800" fill="#0f172a">AI Data Artifact Map</text>
  <text x="86" y="148" font-family="Inter, Arial, sans-serif" font-size="18" fill="#475569">Residency follows every copy, chunk, vector, log, and output</text>
  <g font-family="Inter, Arial, sans-serif" text-anchor="middle">
    <g font-size="18" font-weight="800">
      <rect x="88" y="284" width="156" height="86" rx="16" fill="#eff6ff" stroke="#2563eb"/><text x="166" y="334" fill="#1e3a8a">Prompt</text>
      <rect x="300" y="208" width="156" height="86" rx="16" fill="#ecfdf5" stroke="#16a34a"/><text x="378" y="258" fill="#14532d">Files</text>
      <rect x="300" y="360" width="156" height="86" rx="16" fill="#fff7ed" stroke="#f97316"/><text x="378" y="410" fill="#7c2d12">Chunks</text>
      <rect x="522" y="284" width="156" height="86" rx="16" fill="#f5f3ff" stroke="#7c3aed"/><text x="600" y="334" fill="#4c1d95">Embeddings</text>
      <rect x="744" y="208" width="156" height="86" rx="16" fill="#fef2f2" stroke="#ef4444"/><text x="822" y="258" fill="#7f1d1d">Model Output</text>
      <rect x="744" y="360" width="156" height="86" rx="16" fill="#f1f5f9" stroke="#64748b"/><text x="822" y="410" fill="#334155">Logs</text>
      <rect x="956" y="284" width="156" height="86" rx="16" fill="#fef3c7" stroke="#d97706"/><text x="1034" y="334" fill="#78350f">Audit Record</text>
    </g>
    <g stroke="#94a3b8" stroke-width="4" fill="none" stroke-linecap="round" stroke-linejoin="round">
      <path d="M244 327h278"/><path d="M456 251c56 0 72 33 66 77"/><path d="M456 403c56 0 72-33 66-77"/><path d="M678 327h278"/><path d="M900 251c56 0 72 33 66 77"/><path d="M900 403c56 0 72-33 66-77"/>
    </g>
  </g>
</svg>
