<svg xmlns="http://www.w3.org/2000/svg" width="1200" height="630" viewBox="0 0 1200 630" role="img" aria-label="prompt injection control map">
        
        <style>
            .eyebrow { font: 900 18px Inter, Arial, sans-serif; letter-spacing: 0; text-transform: uppercase; fill: #2563eb; }
            .title { font: 950 58px Inter, Arial, sans-serif; letter-spacing: 0; fill: #111827; }
            .subtitle { font: 750 25px Inter, Arial, sans-serif; fill: #334155; }
            .body { font: 700 22px Inter, Arial, sans-serif; fill: #475569; }
            .small { font: 800 18px Inter, Arial, sans-serif; fill: #64748b; }
            .label { font: 900 16px Inter, Arial, sans-serif; fill: #64748b; }
            .metric { font: 950 28px Inter, Arial, sans-serif; }
            .node { font: 950 23px Inter, Arial, sans-serif; fill: #111827; }
            .check { font: 800 21px Inter, Arial, sans-serif; fill: #334155; }
        </style>
        <defs>
            <pattern id="grid" width="42" height="42" patternUnits="userSpaceOnUse">
                <path d="M 42 0 L 0 0 0 42" fill="none" stroke="#e8eef6" stroke-width="1"/>
            </pattern>
            <filter id="shadow" x="-20%" y="-20%" width="140%" height="150%">
                <feDropShadow dx="0" dy="18" stdDeviation="18" flood-color="#0f172a" flood-opacity="0.13"/>
            </filter>
        </defs>
    
        <rect width="1200" height="630" fill="#ffffff"/>
        <rect width="1200" height="630" fill="url(#grid)"/>
        <rect x="70" y="70" width="1060" height="490" rx="28" fill="#ffffff" stroke="#dbe3ef" stroke-width="2" filter="url(#shadow)"/>
        <text class="eyebrow" x="112" y="126">Runtime control map</text>
        <text class="subtitle" x="112" y="180"><tspan x="112" dy="0">separate trusted instructions from untrusted content and enforce</tspan><tspan x="112" dy="33">tool permissions outside the model</tspan></text>
        
                <rect x="95" y="205" width="190" height="126" rx="22" fill="#f8fafc" stroke="#dbe3ef" stroke-width="2"/>
                <text class="node" x="190" y="278" text-anchor="middle">Input</text>
                <path d="M 285 268 L 347 268" stroke="#2563eb" stroke-width="5" stroke-linecap="round"/><path d="M 341 252 L 365 268 L 341 284" fill="none" stroke="#2563eb" stroke-width="5" stroke-linecap="round" stroke-linejoin="round"/>
            
                <rect x="365" y="205" width="190" height="126" rx="22" fill="#f8fafc" stroke="#dbe3ef" stroke-width="2"/>
                <text class="node" x="460" y="278" text-anchor="middle">Policy</text>
                <path d="M 555 268 L 617 268" stroke="#2563eb" stroke-width="5" stroke-linecap="round"/><path d="M 611 252 L 635 268 L 611 284" fill="none" stroke="#2563eb" stroke-width="5" stroke-linecap="round" stroke-linejoin="round"/>
            
                <rect x="635" y="205" width="190" height="126" rx="22" fill="#f8fafc" stroke="#dbe3ef" stroke-width="2"/>
                <text class="node" x="730" y="278" text-anchor="middle">Model</text>
                <path d="M 825 268 L 887 268" stroke="#2563eb" stroke-width="5" stroke-linecap="round"/><path d="M 881 252 L 905 268 L 881 284" fill="none" stroke="#2563eb" stroke-width="5" stroke-linecap="round" stroke-linejoin="round"/>
            
                <rect x="905" y="205" width="190" height="126" rx="22" fill="#f8fafc" stroke="#dbe3ef" stroke-width="2"/>
                <text class="node" x="1000" y="278" text-anchor="middle">Audit</text>
                
            
        <rect x="112" y="388" width="976" height="98" rx="20" fill="#eff6ff" stroke="#bfdbfe" stroke-width="2"/>
        <text class="label" x="142" y="426">Primary control</text>
        <text class="body" x="142" y="462"><tspan x="142" dy="0">prompt and tool-call policy enforcement</tspan></text>
    </svg>